/* XPM */
static char *result[] = {
/* columns rows colors chars-per-pixel */
"16 16 58 1 ",
"  c #13AB95",
". c #14B69C",
"X c #1498A8",
"o c #1595B2",
"O c #15ABA7",
"+ c #16DC9E",
"@ c #16E19C",
"# c #17CBB3",
"$ c #17D2B3",
"% c #17D4B0",
"& c #18D3BB",
"* c #18D5B9",
"= c #18D4BC",
"- c #18DABA",
"; c #19DFBB",
": c #19DBBC",
"> c #17EAA3",
", c #17E8A5",
"< c #18EFA7",
"1 c #18EDAA",
"2 c #18EAAD",
"3 c #18ECAF",
"4 c #18F2A5",
"5 c #18F4A7",
"6 c #18F1A9",
"7 c #17E1B1",
"8 c #18E6B3",
"9 c #18E3B6",
"0 c #18E8B0",
"q c #19E1B8",
"w c #17A1C5",
"e c #18BFC1",
"r c #1ABEDD",
"t c #1AB9E3",
"y c #1ABCE0",
"u c #1BBFE1",
"i c #1BBEE5",
"p c #18CDC4",
"a c #19CACF",
"s c #19DAC2",
"d c #19DEC0",
"f c #19DFC0",
"g c #19DEC1",
"h c #19D9C5",
"j c #19DBC4",
"k c #19D9C7",
"l c #19D6CB",
"z c #1AD2CF",
"x c #19C7D3",
"c c #19C5D5",
"v c #1ACCD2",
"b c #19C3D8",
"n c #1AC0DB",
"m c #1AC1DB",
"M c #1ACAD9",
"N c #1AD1D0",
"B c #1BC2E3",
"V c None",
/* pixels */
"VVVVVVVVVVVVVVVV",
"VVVVVVVVVVVVVVVV",
"VVVVVVVVVVVVVVVV",
"VVV6+3VVVVf#hVVV",
"V5>VVV7VV: VVpzV",
"4@VVVVV%$VVVVVev",
"<,VVVVV-*VVVVVVx",
"1VVVVVVVVVVVVVVc",
"2VVVVVgjklVVVVVb",
"0VVVVgVVVONVVVVn",
"8VVVV=VVVVaVVVVr",
"9VVVsVVVVVVMVVuy",
"q;d&VVVVVVVXmBit",
"V.VVVVVVVVVVVowV",
"VVVVVVVVVVVVVVVV",
"VVVVVVVVVVVVVVVV"
};
