/* XPM */
static char *result[] = {
/* columns rows colors chars-per-pixel */
"32 32 158 2 ",
"   c #0F8F6C",
".  c #0F946A",
"X  c #0F8370",
"o  c #10A171",
"O  c #106F8A",
"+  c #11788C",
"@  c #117492",
"#  c #108482",
"$  c #11828E",
"%  c #11858E",
"&  c #129E8D",
"*  c #12A18D",
"=  c #12A988",
"-  c #13BE8B",
";  c #13A693",
":  c #13AA94",
">  c #13AA96",
",  c #14AF97",
"<  c #14B09D",
"1  c #15ADA5",
"2  c #15B5A3",
"3  c #15BAA6",
"4  c #17BCB9",
"5  c #17B9BD",
"6  c #14C68E",
"7  c #15CF92",
"8  c #15CDA1",
"9  c #16C5AD",
"0  c #17CCB1",
"q  c #17CEB2",
"w  c #17CEB5",
"e  c #17C7B9",
"r  c #18CEB9",
"t  c #18DEB7",
"y  c #18D3BE",
"u  c #19DCBF",
"i  c #19DFBF",
"p  c #17E8A4",
"a  c #17ECA5",
"s  c #17E2AC",
"d  c #18EFAB",
"f  c #18EBAD",
"g  c #18E8AF",
"h  c #18EAAE",
"j  c #18EDAC",
"k  c #18EFAC",
"l  c #18EFAD",
"z  c #18EDAE",
"x  c #18ECAF",
"c  c #18EEAE",
"v  c #18F3A7",
"b  c #18F4A6",
"n  c #18F5A6",
"m  c #18F1A9",
"M  c #18F2A8",
"N  c #18F3A8",
"B  c #18F2A9",
"V  c #18F1AA",
"C  c #18F0AB",
"Z  c #18E5B1",
"A  c #18E7B0",
"S  c #18E4B3",
"D  c #18E1B5",
"F  c #18E2B4",
"G  c #19E0B6",
"H  c #18E7B5",
"J  c #18E7B6",
"K  c #18E6B7",
"L  c #18EBB1",
"P  c #18EAB2",
"I  c #18EAB3",
"U  c #18ECB0",
"Y  c #18E9B4",
"T  c #19E2B9",
"R  c #19E3BB",
"E  c #18E5B8",
"W  c #19E5B9",
"Q  c #19E4BA",
"!  c #19E1BC",
"~  c #19E1BD",
"^  c #19E2BC",
"/  c #19E0BE",
"(  c #19E1BE",
")  c #19E0BF",
"_  c #17A6C4",
"`  c #18B3CB",
"'  c #1BBEE4",
"]  c #1BBFE5",
"[  c #1BBFE7",
"{  c #1BBDE9",
"}  c #1BBEE8",
"|  c #1BBCEA",
" . c #19C9C3",
".. c #19CBCA",
"X. c #19C8CC",
"o. c #19D7C3",
"O. c #19DAC2",
"+. c #19DBC2",
"@. c #19DFC0",
"#. c #19DEC1",
"$. c #19DDC2",
"%. c #19DCC3",
"&. c #19DDC3",
"*. c #19DEC2",
"=. c #19DBC4",
"-. c #19DBC5",
";. c #19D9C7",
":. c #19DAC6",
">. c #19DCC4",
",. c #19D7C9",
"<. c #19D6CA",
"1. c #19D6CB",
"2. c #1AD2CF",
"3. c #1AD3CF",
"4. c #19D5CC",
"5. c #1AD5CC",
"6. c #1AD4CD",
"7. c #1AD4CE",
"8. c #19D9C8",
"9. c #19D8C9",
"0. c #1ACAD1",
"q. c #19C8D2",
"w. c #1ACFD1",
"e. c #1ACFD3",
"r. c #1ACAD4",
"t. c #1AC9D6",
"y. c #1AC9D7",
"u. c #1ACED5",
"i. c #1ACDD6",
"p. c #1ACCD7",
"a. c #1AC5DA",
"s. c #1AC7DB",
"d. c #1AC6DC",
"f. c #1AC7DD",
"g. c #1AC5DE",
"h. c #1AC5DF",
"j. c #1AC6DE",
"k. c #1AC7DE",
"l. c #1AC8D9",
"z. c #1AC9D9",
"x. c #1ACBD8",
"c. c #1ACAD9",
"v. c #1AC9DB",
"b. c #1ACADA",
"n. c #1AC8DC",
"m. c #1AD1D0",
"M. c #1AD1D1",
"N. c #1AD0D2",
"B. c #1BC3E1",
"V. c #1BC3E2",
"C. c #1BC2E3",
"Z. c #1BC4E0",
"A. c #1BC5E0",
"S. c #1BC4E1",
"D. c #1BC1E4",
"F. c #1BC1E5",
"G. c #1BC0E6",
"H. c None",
/* pixels */
"H.H.H.H.H.H.H.H.H.H.H.H.H.H.H.H.H.H.H.H.H.H.H.H.H.H.H.H.H.H.H.H.",
"H.H.H.H.H.H.H.H.H.H.H.H.H.H.H.H.H.H.H.H.H.H.H.H.H.H.H.H.H.H.H.H.",
"H.H.H.H.H.H.H.H.H.H.H.H.H.H.H.H.H.H.H.H.H.H.H.H.H.H.H.H.H.H.H.H.",
"H.H.H.H.H.H.H.H.H.H.H.H.H.H.H.H.H.H.H.H.H.H.H.H.H.H.H.H.H.H.H.H.",
"H.H.H.H.H.H.H.H.H.H.H.H.H.H.H.H.H.H.H.H.H.H.H.H.H.H.H.H.H.H.H.H.",
"H.H.H.H.H.H.H.H.V C H.H.H.H.H.H.H.H.H.H.H.H.@.#.H.H.H.H.H.H.H.H.",
"H.H.H.H.H.H.H.m C k c H.H.H.H.H.H.H.H.H.H.@.#.&.=.:.H.H.H.H.H.H.",
"H.H.H.H.H.N m C 6 - x L I H.H.H.H.H.H./ ) #.9 & o.;.9.H.H.H.H.H.",
"H.H.H.H.v B p . H.H.  s Y J H.H.H.H.( ) u * H.H.H.e <.4.H.H.H.H.",
"H.H.b v B 7 H.H.H.H.H.H.8 K W Q ^ ~ ) q H.H.H.H.H.H.1 6.3.m.H.H.",
"H.n v a o H.H.H.H.H.H.H.H.= T ^ ~ i , H.H.H.H.H.H.H.H.# ..N.e.H.",
"H.v M H.H.H.H.H.H.H.H.H.H.H.H.~ ) X H.H.H.H.H.H.H.H.H.H.H.X.u.H.",
"H.M V H.H.H.H.H.H.H.H.H.H.H.H.) @.H.H.H.H.H.H.H.H.H.H.H.H.0.i.H.",
"H.V d H.H.H.H.H.H.H.H.H.H.H.H.@.*.H.H.H.H.H.H.H.H.H.H.H.H.r.x.H.",
"H.C j H.H.H.H.H.H.H.H.H.H.H.H.: > H.H.H.H.H.H.H.H.H.H.H.H.t.c.H.",
"H.l f H.H.H.H.H.H.H.H.H.H.H.H.H.H.H.H.H.H.H.H.H.H.H.H.H.H.y.v.H.",
"H.z h H.H.H.H.H.H.H.H./ @.#.%.-.:.8.,.1.5.H.H.H.H.H.H.H.H.l.n.H.",
"H.U g H.H.H.H.H.H.H.H.@.#.&.=.:.;.9.1.5.7.H.H.H.H.H.H.H.H.s.k.H.",
"H.L A H.H.H.H.H.H.H.H.#.w H.H.H.H.H.H. .2.H.H.H.H.H.H.H.H.d.h.H.",
"H.P Z H.H.H.H.H.H.H.#.$.3 H.H.H.H.H.H.4 M.w.H.H.H.H.H.H.H.g.Z.H.",
"H.Y S H.H.H.H.H.H.H.$.O.H.H.H.H.H.H.H.H.N.e.H.H.H.H.H.H.H.Z.V.H.",
"H.H F H.H.H.H.H.H.$.>.2 H.H.H.H.H.H.H.H.5 u.p.H.H.H.H.H.H.B.C.H.",
"H.K D H.H.H.H.H.$.>.r H.H.H.H.H.H.H.H.H.H.q.x.b.H.H.H.H.H.C.F.H.",
"H.E G H.H.H.H.$.%.y H.H.H.H.H.H.H.H.H.H.H.% z.v.f.H.H.H.H.F.G.H.",
"H.Q t H.H.@.*.%.r H.H.H.H.H.H.H.H.H.H.H.H.H.$ a.j.A.H.H.H.G.} H.",
"H.R ! / @.#.+.< H.H.H.H.H.H.H.H.H.H.H.H.H.H.H.H.` S.C.D.] [ { H.",
"H.^ / i 0 ; H.H.H.H.H.H.H.H.H.H.H.H.H.H.H.H.H.H.H.+ _ ' [ { | H.",
"H.H.H.H.H.H.H.H.H.H.H.H.H.H.H.H.H.H.H.H.H.H.H.H.H.H.H.H.H.O @ H.",
"H.H.H.H.H.H.H.H.H.H.H.H.H.H.H.H.H.H.H.H.H.H.H.H.H.H.H.H.H.H.H.H.",
"H.H.H.H.H.H.H.H.H.H.H.H.H.H.H.H.H.H.H.H.H.H.H.H.H.H.H.H.H.H.H.H.",
"H.H.H.H.H.H.H.H.H.H.H.H.H.H.H.H.H.H.H.H.H.H.H.H.H.H.H.H.H.H.H.H.",
"H.H.H.H.H.H.H.H.H.H.H.H.H.H.H.H.H.H.H.H.H.H.H.H.H.H.H.H.H.H.H.H."
};
