/* XPM */
static char *result[] = {
/* columns rows colors chars-per-pixel */
"64 64 100 2 ",
"   c #08533B",
".  c #093F4C",
"X  c #095A47",
"o  c #0A5C4F",
"O  c #0B5D53",
"+  c #0A5058",
"@  c #0B6154",
"#  c #0C665B",
"$  c #0C6D5D",
"%  c #0C7356",
"&  c #0C5F66",
"*  c #0D5F70",
"=  c #0D6D62",
"-  c #0D6169",
";  c #0D7366",
":  c #0E746C",
">  c #0F6C7E",
",  c #0E7B74",
"<  c #0D825E",
"1  c #0E8068",
"2  c #0E9067",
"3  c #109D6F",
"4  c #0F827B",
"5  c #108977",
"6  c #109775",
"7  c #11AA77",
"8  c #12AD7F",
"9  c #117D91",
"0  c #119787",
"q  c #119B85",
"w  c #119789",
"e  c #129B8B",
"r  c #12819E",
"t  c #129193",
"y  c #12A18D",
"u  c #13BF8A",
"i  c #13AA97",
"p  c #14A19B",
"a  c #14AD98",
"s  c #13B490",
"d  c #149DA2",
"f  c #1594B3",
"g  c #1697BC",
"h  c #16AFAD",
"j  c #14B2A1",
"k  c #15BAA5",
"l  c #16AFB2",
"z  c #16A6B9",
"x  c #17B5B6",
"c  c #14C98F",
"v  c #14C697",
"b  c #15D194",
"n  c #16D69C",
"m  c #16D998",
"M  c #16C8A6",
"N  c #16C6AD",
"B  c #16D5A9",
"V  c #17CDB5",
"C  c #17C2B8",
"Z  c #18C4BD",
"A  c #17CCB9",
"S  c #18CEB9",
"D  c #18D7B2",
"F  c #17DDB0",
"G  c #18DAB3",
"H  c #18D3BB",
"J  c #19DCBE",
"K  c #17E5A4",
"L  c #17EBA6",
"P  c #18EEA7",
"I  c #17E3AD",
"U  c #18E7AC",
"Y  c #18EDAD",
"T  c #17F5A5",
"R  c #18F4A6",
"E  c #18F1A9",
"W  c #18E6B6",
"Q  c #18EAB2",
"!  c #19E2BD",
"~  c #169AC1",
"^  c #18BAC4",
"/  c #19B7D6",
"(  c #1ABCD3",
")  c #1AB8DD",
"_  c #1BBFE7",
"`  c #1BBDE9",
"'  c #18C1C7",
"]  c #19C2C9",
"[  c #19CCCC",
"{  c #19D5C3",
"}  c #19DDC2",
"|  c #1AD5CC",
" . c #19D8C8",
".. c #1AC6D5",
"X. c #1ACDD5",
"o. c #1AC6DD",
"O. c #1ACADA",
"+. c #1AD1D1",
"@. c #1BC2E3",
"#. c None",
/* pixels */
"#.#.#.#.#.#.#.#.#.#.#.#.#.#.#.#.#.#.#.#.#.#.#.#.#.#.#.#.#.#.#.#.#.#.#.#.#.#.#.#.#.#.#.#.#.#.#.#.#.#.#.#.#.#.#.#.#.#.#.#.#.#.#.#.",
"#.#.#.#.#.#.#.#.#.#.#.#.#.#.#.#.#.#.#.#.#.#.#.#.#.#.#.#.#.#.#.#.#.#.#.#.#.#.#.#.#.#.#.#.#.#.#.#.#.#.#.#.#.#.#.#.#.#.#.#.#.#.#.#.",
"#.#.#.#.#.#.#.#.#.#.#.#.#.#.#.#.#.#.#.#.#.#.#.#.#.#.#.#.#.#.#.#.#.#.#.#.#.#.#.#.#.#.#.#.#.#.#.#.#.#.#.#.#.#.#.#.#.#.#.#.#.#.#.#.",
"#.#.#.#.#.#.#.#.#.#.#.#.#.#.#.#.#.#.#.#.#.#.#.#.#.#.#.#.#.#.#.#.#.#.#.#.#.#.#.#.#.#.#.#.#.#.#.#.#.#.#.#.#.#.#.#.#.#.#.#.#.#.#.#.",
"#.#.#.#.#.#.#.#.#.#.#.#.#.#.#.#.#.#.#.#.#.#.#.#.#.#.#.#.#.#.#.#.#.#.#.#.#.#.#.#.#.#.#.#.#.#.#.#.#.#.#.#.#.#.#.#.#.#.#.#.#.#.#.#.",
"#.#.#.#.#.#.#.#.#.#.#.#.#.#.#.#.#.#.#.#.#.#.#.#.#.#.#.#.#.#.#.#.#.#.#.#.#.#.#.#.#.#.#.#.#.#.#.#.#.#.#.#.#.#.#.#.#.#.#.#.#.#.#.#.",
"#.#.#.#.#.#.#.#.#.#.#.#.#.#.#.#.#.#.#.#.#.#.#.#.#.#.#.#.#.#.#.#.#.#.#.#.#.#.#.#.#.#.#.#.#.#.#.#.#.#.#.#.#.#.#.#.#.#.#.#.#.#.#.#.",
"#.#.#.#.#.#.#.#.#.#.#.#.#.#.#.#.#.#.#.#.#.#.#.#.#.#.#.#.#.#.#.#.#.#.#.#.#.#.#.#.#.#.#.#.#.#.#.#.#.#.#.#.#.#.#.#.#.#.#.#.#.#.#.#.",
"#.#.#.#.#.#.#.#.#.#.#.#.#.#.#.#.#.#.#.#.#.#.#.#.#.#.#.#.#.#.#.#.#.#.#.#.#.#.#.#.#.#.#.#.#.#.#.#.#.#.#.#.#.#.#.#.#.#.#.#.#.#.#.#.",
"#.#.#.#.#.#.#.#.#.#.#.#.#.#.#.#.#.#.#.#.#.#.#.#.#.#.#.#.#.#.#.#.#.#.#.#.#.#.#.#.#.#.#.#.#.#.#.#.#.#.#.#.#.#.#.#.#.#.#.#.#.#.#.#.",
"#.#.#.#.#.#.#.#.#.#.#.#.#.#.#.#.#.E E E #.#.#.#.#.#.#.#.#.#.#.#.#.#.#.#.#.#.#.#.#.#.#.#.#.} ! } #.#.#.#.#.#.#.#.#.#.#.#.#.#.#.#.",
"#.#.#.#.#.#.#.#.#.#.#.#.#.#.#.E E E E Y Y #.#.#.#.#.#.#.#.#.#.#.#.#.#.#.#.#.#.#.#.#.#.#.} ! } } } #.#.#.#.#.#.#.#.#.#.#.#.#.#.#.",
"#.#.#.#.#.#.#.#.#.#.#.#.#.#.E E E E E E E Y #.#.#.#.#.#.#.#.#.#.#.#.#.#.#.#.#.#.#.#.} ! } } } } } } } #.#.#.#.#.#.#.#.#.#.#.#.#.",
"#.#.#.#.#.#.#.#.#.#.#.#.E R E E Y Y Y Y Q Y Y Q #.#.#.#.#.#.#.#.#.#.#.#.#.#.#.#.#.! ! } } } } } }  . . .#.#.#.#.#.#.#.#.#.#.#.#.",
"#.#.#.#.#.#.#.#.#.#.#.E E E E E E K m Y Y Q Y Q Q #.#.#.#.#.#.#.#.#.#.#.#.#.#.! ! ! } ! } } j }  .} }  . .#.#.#.#.#.#.#.#.#.#.#.",
"#.#.#.#.#.#.#.#.#.R R R E E Y E u #.#.s Y Y Q Q Q Q #.#.#.#.#.#.#.#.#.#.#.#.! ! } } } } H @ #.O S  . . . .|  .#.#.#.#.#.#.#.#.#.",
"#.#.#.#.#.#.#.#.R E R E E E K < #.#.#.#.% I Q Q Q Q W W #.#.#.#.#.#.#.#.#.} ! } } ! } a #.#.#.#.#.j  . . .|  .| #.#.#.#.#.#.#.#.",
"#.#.#.#.#.#.#.R R R E E E c #.#.#.#.#.#.#.#.v Q Q W W W W #.#.#.#.#.#.! ! ! ! ! } J ; #.#.#.#.#.#.#.4 { | | | | | +.#.#.#.#.#.#.",
"#.#.#.#.#.R R R E E E L 2 #.#.#.#.#.#.#.#.#.#.6 W W W W W W ! #.#.#.! ! ! } } } k #.#.#.#.#.#.#.#.#.#.#.Z | | | | | +.#.#.#.#.#.",
"#.#.#.#.R R R E E E b #.#.#.#.#.#.#.#.#.#.#.#.#.X B W W ! W ! ! ! ! ! ! } ! J 5 #.#.#.#.#.#.#.#.#.#.#.#.#.t | | +.+.+.+.#.#.#.#.",
"#.#.T R R R R E P 3 #.#.#.#.#.#.#.#.#.#.#.#.#.#.#.#.s W W W ! ! ! ! } ! } M #.#.#.#.#.#.#.#.#.#.#.#.#.#.#.#.: [ +.+.+.+.+.+.#.#.",
"#.#.R R R R E m   #.#.#.#.#.#.#.#.#.#.#.#.#.#.#.#.#.#.1 G ! ! ! ! ! ! } q #.#.#.#.#.#.#.#.#.#.#.#.#.#.#.#.#.#.#.x +.+.+.+.X.X.#.",
"#.#.R R R E 7 #.#.#.#.#.#.#.#.#.#.#.#.#.#.#.#.#.#.#.#.#.#.N ! ! ! ! D o #.#.#.#.#.#.#.#.#.#.#.#.#.#.#.#.#.#.#.#.#.t +.+.X.X.] #.",
"#.#.R R E E #.#.#.#.#.#.#.#.#.#.#.#.#.#.#.#.#.#.#.#.#.#.#.#.! ! } } #.#.#.#.#.#.#.#.#.#.#.#.#.#.#.#.#.#.#.#.#.#.#.#.x X.X.X.^ #.",
"#.#.R R E E #.#.#.#.#.#.#.#.#.#.#.#.#.#.#.#.#.#.#.#.#.#.#.#.! ! ! } #.#.#.#.#.#.#.#.#.#.#.#.#.#.#.#.#.#.#.#.#.#.#.#.' X.X.X.^ #.",
"#.#.E E E E #.#.#.#.#.#.#.#.#.#.#.#.#.#.#.#.#.#.#.#.#.#.#.#.! } ! } #.#.#.#.#.#.#.#.#.#.#.#.#.#.#.#.#.#.#.#.#.#.#.#...X.X.X.#.#.",
"#.#.E E E Y #.#.#.#.#.#.#.#.#.#.#.#.#.#.#.#.#.#.#.#.#.#.#.#.! ! } } #.#.#.#.#.#.#.#.#.#.#.#.#.#.#.#.#.#.#.#.#.#.#.#...X.X.X.#.#.",
"#.#.E E E Y #.#.#.#.#.#.#.#.#.#.#.#.#.#.#.#.#.#.#.#.#.#.#.#.} } } } #.#.#.#.#.#.#.#.#.#.#.#.#.#.#.#.#.#.#.#.#.#.#.#.X.X.O.O.#.#.",
"#.#.E Y E Y #.#.#.#.#.#.#.#.#.#.#.#.#.#.#.#.#.#.#.#.#.#.#.#.} } } } #.#.#.#.#.#.#.#.#.#.#.#.#.#.#.#.#.#.#.#.#.#.#.#...O.O.O.#.#.",
"#.#.E Y Y Y #.#.#.#.#.#.#.#.#.#.#.#.#.#.#.#.#.#.#.#.#.#.#.#.#.#.#.#.#.#.#.#.#.#.#.#.#.#.#.#.#.#.#.#.#.#.#.#.#.#.#.#...X.O.O.#.#.",
"#.#.E E Y U #.#.#.#.#.#.#.#.#.#.#.#.#.#.#.#.#.#.#.#.#.#.#.#.#.#.#.#.#.#.#.#.#.#.#.#.#.#.#.#.#.#.#.#.#.#.#.#.#.#.#.#...O.O.O.#.#.",
"#.#.Q E Q U #.#.#.#.#.#.#.#.#.#.#.#.#.#.#.#.#.#.#.#.#.#.#.#.#.#.#.#.#.#.#.#.#.#.#.#.#.#.#.#.#.#.#.#.#.#.#.#.#.#.#.#...O.O.O.#.#.",
"#.#.Y Y Q U #.#.#.#.#.#.#.#.#.#.#.#.#.#.#.#.! ! ! } } } } }  .}  .}  . . . .| | | | #.#.#.#.#.#.#.#.#.#.#.#.#.#.#.#...O.@.O.#.#.",
"#.#.Y Y Q U #.#.#.#.#.#.#.#.#.#.#.#.#.#.#.#.! } } } } } } } } }  . . . . . .|  .| | #.#.#.#.#.#.#.#.#.#.#.#.#.#.#.#...O.O.@.#.#.",
"#.#.Y Q Q U #.#.#.#.#.#.#.#.#.#.#.#.#.#.#.#.} ! ! } } } }  .}  . .}  . .|  .| | | | #.#.#.#.#.#.#.#.#.#.#.#.#.#.#.#...O.O.@.#.#.",
"#.#.Y Q Q U #.#.#.#.#.#.#.#.#.#.#.#.#.#.#.#.! } } } } } } }  . . . . . . .| | | +.| #.#.#.#.#.#.#.#.#.#.#.#.#.#.#.#.o.o.O.O.#.#.",
"#.#.Q Q Q I #.#.#.#.#.#.#.#.#.#.#.#.#.#.#.J } ! } N $ $ = ; ; : : , , , , 0 x +.| +.#.#.#.#.#.#.#.#.#.#.#.#.#.#.#.#.o.O.@.@.#.#.",
"#.#.Q Q Q I #.#.#.#.#.#.#.#.#.#.#.#.#.#.#.J } } } a #.#.#.#.#.#.#.#.#.#.#.#.h +.+.| | #.#.#.#.#.#.#.#.#.#.#.#.#.#.#.o.o.O.@.#.#.",
"#.#.Q Q Q I #.#.#.#.#.#.#.#.#.#.#.#.#.#.#.} } } } #.#.#.#.#.#.#.#.#.#.#.#.#.#.| +.+.+.#.#.#.#.#.#.#.#.#.#.#.#.#.#.#.o.o.O.@.#.#.",
"#.#.Q Q Q I #.#.#.#.#.#.#.#.#.#.#.#.#.#.} ! }  .V #.#.#.#.#.#.#.#.#.#.#.#.#.#.[ +.+.+.#.#.#.#.#.#.#.#.#.#.#.#.#.#.#.O.@.@.@.#.#.",
"#.#.Q W W I #.#.#.#.#.#.#.#.#.#.#.#.#.#.} } } } y #.#.#.#.#.#.#.#.#.#.#.#.#.#.l +.+.+.X.#.#.#.#.#.#.#.#.#.#.#.#.#.#.o.@.@.o.#.#.",
"#.#.Q Q W I #.#.#.#.#.#.#.#.#.#.#.#.#.} } } } H #.#.#.#.#.#.#.#.#.#.#.#.#.#.#.#.+.+.+.X.#.#.#.#.#.#.#.#.#.#.#.#.#.#.o.@.@.@.#.#.",
"#.#.Q W W G #.#.#.#.#.#.#.#.#.#.#.#.#.} } }  .e #.#.#.#.#.#.#.#.#.#.#.#.#.#.#.#.x +.X.X.X.#.#.#.#.#.#.#.#.#.#.#.#.#.@.@.@.@.#.#.",
"#.#.Q W W G #.#.#.#.#.#.#.#.#.#.#.#.} } }  .V #.#.#.#.#.#.#.#.#.#.#.#.#.#.#.#.#.#.+.X.X.O.X.#.#.#.#.#.#.#.#.#.#.#.#.o.@.@.@.#.#.",
"#.#.W W W G #.#.#.#.#.#.#.#.#.#.#.} } }  . .#.#.#.#.#.#.#.#.#.#.#.#.#.#.#.#.#.#.#.d X.X.O.X.O.#.#.#.#.#.#.#.#.#.#.#.@.@.@.@.#.#.",
"#.#.W W W G #.#.#.#.#.#.#.#.#.#.} } } } } e #.#.#.#.#.#.#.#.#.#.#.#.#.#.#.#.#.#.#.#.^ X.O.O.O.O.#.#.#.#.#.#.#.#.#.#.@.@.@._ #.#.",
"#.#.W W W F #.#.#.#.#.#.#.#.#.} } } }  .j #.#.#.#.#.#.#.#.#.#.#.#.#.#.#.#.#.#.#.#.#.#...O.O.O.O.O.#.#.#.#.#.#.#.#.#._ @._ @.#.#.",
"#.#.! W ! G #.#.#.#.#.#.#.} } } }  . .k #.#.#.#.#.#.#.#.#.#.#.#.#.#.#.#.#.#.#.#.#.#.#.* ..O.O.o.@.@.#.#.#.#.#.#.#.#.@._ @._ #.#.",
"#.#.! ! ! D #.#.#.#.#.} } } } } }  .a #.#.#.#.#.#.#.#.#.#.#.#.#.#.#.#.#.#.#.#.#.#.#.#.#.- ..o.o.O.o.@.O.#.#.#.#.#.#._ @._ ` #.#.",
"#.#.! W ! D #.#.#.! ! } ! } }  . .e #.#.#.#.#.#.#.#.#.#.#.#.#.#.#.#.#.#.#.#.#.#.#.#.#.#.#.+ ( o.@.o.@.@.o.@.#.#.#.#._ _ _ _ #.#.",
"#.#.W ! ! ! ! ! ! } ! } } } } S $ #.#.#.#.#.#.#.#.#.#.#.#.#.#.#.#.#.#.#.#.#.#.#.#.#.#.#.#.#.#.z O.@.@.O.@.@.@.@.@._ _ _ ` ` #.#.",
"#.#.! ! ! ! } ! ! } } } } { e #.#.#.#.#.#.#.#.#.#.#.#.#.#.#.#.#.#.#.#.#.#.#.#.#.#.#.#.#.#.#.#.#.9 ( @.@.@.@.@._ _ _ _ _ ` ` #.#.",
"#.#.W ! ! J ! } } J } H w #.#.#.#.#.#.#.#.#.#.#.#.#.#.#.#.#.#.#.#.#.#.#.#.#.#.#.#.#.#.#.#.#.#.#.#.#.9 / @.@._ _ _ _ ` ` ` ` #.#.",
"#.G ! ! ! ! } J N y # #.#.#.#.#.#.#.#.#.#.#.#.#.#.#.#.#.#.#.#.#.#.#.#.#.#.#.#.#.#.#.#.#.#.#.#.#.#.#.#.#.- f _ ` _ ` ` ` ` ` #.#.",
"#.#.$ ; $ @ #.#.#.#.#.#.#.#.#.#.#.#.#.#.#.#.#.#.#.#.#.#.#.#.#.#.#.#.#.#.#.#.#.#.#.#.#.#.#.#.#.#.#.#.#.#.#.#.#.. 9 9 f ~ ~ ~ #.#.",
"#.#.#.#.#.#.#.#.#.#.#.#.#.#.#.#.#.#.#.#.#.#.#.#.#.#.#.#.#.#.#.#.#.#.#.#.#.#.#.#.#.#.#.#.#.#.#.#.#.#.#.#.#.#.#.#.#.#.#.#.#.#.#.#.",
"#.#.#.#.#.#.#.#.#.#.#.#.#.#.#.#.#.#.#.#.#.#.#.#.#.#.#.#.#.#.#.#.#.#.#.#.#.#.#.#.#.#.#.#.#.#.#.#.#.#.#.#.#.#.#.#.#.#.#.#.#.#.#.#.",
"#.#.#.#.#.#.#.#.#.#.#.#.#.#.#.#.#.#.#.#.#.#.#.#.#.#.#.#.#.#.#.#.#.#.#.#.#.#.#.#.#.#.#.#.#.#.#.#.#.#.#.#.#.#.#.#.#.#.#.#.#.#.#.#.",
"#.#.#.#.#.#.#.#.#.#.#.#.#.#.#.#.#.#.#.#.#.#.#.#.#.#.#.#.#.#.#.#.#.#.#.#.#.#.#.#.#.#.#.#.#.#.#.#.#.#.#.#.#.#.#.#.#.#.#.#.#.#.#.#.",
"#.#.#.#.#.#.#.#.#.#.#.#.#.#.#.#.#.#.#.#.#.#.#.#.#.#.#.#.#.#.#.#.#.#.#.#.#.#.#.#.#.#.#.#.#.#.#.#.#.#.#.#.#.#.#.#.#.#.#.#.#.#.#.#.",
"#.#.#.#.#.#.#.#.#.#.#.#.#.#.#.#.#.#.#.#.#.#.#.#.#.#.#.#.#.#.#.#.#.#.#.#.#.#.#.#.#.#.#.#.#.#.#.#.#.#.#.#.#.#.#.#.#.#.#.#.#.#.#.#.",
"#.#.#.#.#.#.#.#.#.#.#.#.#.#.#.#.#.#.#.#.#.#.#.#.#.#.#.#.#.#.#.#.#.#.#.#.#.#.#.#.#.#.#.#.#.#.#.#.#.#.#.#.#.#.#.#.#.#.#.#.#.#.#.#.",
"#.#.#.#.#.#.#.#.#.#.#.#.#.#.#.#.#.#.#.#.#.#.#.#.#.#.#.#.#.#.#.#.#.#.#.#.#.#.#.#.#.#.#.#.#.#.#.#.#.#.#.#.#.#.#.#.#.#.#.#.#.#.#.#.",
"#.#.#.#.#.#.#.#.#.#.#.#.#.#.#.#.#.#.#.#.#.#.#.#.#.#.#.#.#.#.#.#.#.#.#.#.#.#.#.#.#.#.#.#.#.#.#.#.#.#.#.#.#.#.#.#.#.#.#.#.#.#.#.#."
};
