<?xml version="1.0" encoding="UTF-8" standalone="no"?>
<svg
   version="1.1"
   id="ic_empty_multisend"
   x="0px"
   y="0px"
   viewBox="0 0 100 100"
   style="enable-background:new 0 0 100 100;"
   xml:space="preserve"
   xmlns="http://www.w3.org/2000/svg"
   xmlns:svg="http://www.w3.org/2000/svg"
   xmlns:rdf="http://www.w3.org/1999/02/22-rdf-syntax-ns#"
   xmlns:cc="http://creativecommons.org/ns#"
   xmlns:dc="http://purl.org/dc/elements/1.1/"><metadata
   id="metadata39"><rdf:RDF><cc:Work
       rdf:about=""><dc:format>image/svg+xml</dc:format><dc:type
         rdf:resource="http://purl.org/dc/dcmitype/StillImage" /></cc:Work></rdf:RDF></metadata><defs
   id="defs37"><pattern
     id="EMFhbasepattern"
     patternUnits="userSpaceOnUse"
     width="6"
     height="6"
     x="0"
     y="0" /></defs>
<style
   type="text/css"
   id="style2">
	.st0{fill:#2EA1FF;}
	.st1{fill:#666666;}
	.st2{fill:#EFEFEF;}
</style>

<g
   id="Group_9031">
	<g
   id="Group_9029">
		<path
   id="Rectangle_4683"
   class="st0"
   d="M45,18h10v9H45V18z"
   style="fill:#f68916;fill-opacity:1" />
		<g
   id="Group_9028"
   style="fill:#e55d35;fill-opacity:1">
			<path
   id="Rectangle_4684"
   class="st0"
   d="M14,66h6v10h-6V66z"
   style="fill:#e55d35;fill-opacity:1" />
			<path
   id="Rectangle_4685"
   class="st0"
   d="M80,66h6v10h-6V66z"
   style="fill:#e55d35;fill-opacity:1" />
			<path
   id="Rectangle_4686"
   class="st0"
   d="M47,66h6v10h-6V66z"
   style="fill:#e55d35;fill-opacity:1" />
		</g>
	</g>
	<g
   id="Group_9030">
		<path
   id="Rectangle_4688"
   class="st1"
   d="M67,40h2v4h-2V40z" />
		<circle
   id="Ellipse_626"
   class="st1"
   cx="50"
   cy="73"
   r="1" />
		<circle
   id="Ellipse_627"
   class="st1"
   cx="83"
   cy="73"
   r="1" />
		<path
   id="Rectangle_4689"
   class="st1"
   d="M32,58h4v2h-4V58z" />
		<path
   id="Path_18986"
   class="st1"
   d="M16,65h-3v3H7v4h2v-2h4v7h8v-7h4v21H9V76H7v17h20V68h-6v-3h-3v-5h10v-2H16V65z M19,67v8h-4    v-8H19z" />
		<path
   id="Ellipse_628"
   style="fill:#666666"
   d="M 17 72 A 1 1 0 0 0 16 73 A 1 1 0 0 0 17 74 A 1 1 0 0 0 18 73 A 1 1 0 0 0 17 72 z " />
		
			<path
   id="Path_18987"
   class="st1"
   d="    M87,68v-3h-3v-7H51v-5h18v-5h-2v3H33V28h34v8h2v-8h4V17H59.5c2.3-2.6,2-6.6-0.8-8.7S52,6.8,50,9.7c-1.9-2.9-5.9-3.6-8.7-1.4    c-2.8,2.1-3.1,6.2-0.8,8.8H27v11h4v25h18v5h-9v2h9v5h-3v3h-6v16h2V70h4v7h8v-7h4v21H42v-3h-2v5h20V68h-6v-3h-3v-5h31v5h-3v3h-6v12    h2V70h4v7h8v-7h4v21H75v-7h-2v9h20V68H87z M71,19v7H56v-7H71z M51,13c0-3.6,4.3-5.3,6.8-2.8S58.5,17,55,17h-4V13z M51,19h3v7h-8    v-7H51z M45,9c2.2,0,4,1.8,4,4v4h-4C39.7,17,39.7,9,45,9z M29,26v-7h15v7H29z M52,67v3.2V75h-4v-8H52z M85,75h-4v-8h4V75z" />
	</g>
</g>
<rect
   x="33"
   y="28"
   class="st0"
   width="34"
   height="23"
   id="rect20"
   style="fill:#f68916;fill-opacity:1" />

</svg>
