<?xml version="1.0" standalone="yes"?>
<svg xmlns="http://www.w3.org/2000/svg" width="258" height="219">
<path style="fill:#030102; stroke:none;" d="M0 0L0 164L28 164C28 172.728 27.7268 176.966 18 177L18 171L14 171L14 177L17 177L17 182L14 182L14 189L18 189C18.363 184.242 24.4124 178.309 27.3966 185.148C33.8476 199.934 7.45201 196.774 0 195L0 219L28 219C26.4739 211.289 32.9655 195.959 40 208L84 208L81 213L81 214L84 214L84 219L87 219L87 204L95 204L95 208C105.625 208 116.406 208.827 127 208.406C137.069 208.006 149.498 204.929 159 210L160 210C165.444 207.095 177.787 206.22 183.995 206.538C187.993 206.743 188.878 210.25 187 213L187 214L189 219L195 219C190.391 209.819 199.411 197.23 206 208L215 209L215 204L221 204L221 208C230.092 208.001 232.973 209.498 233 219L258 219L258 189L257 189C252.607 197.029 232.902 200.658 231 189L230 189C224.31 199.003 204.162 199.722 204 186L218 188C214.798 182.704 207.045 182.432 204.758 175.996C200.542 164.136 220.745 160.438 227.681 166.009C232.192 169.633 227.833 174.414 223.171 173.525C221.046 173.121 219.17 172.287 217 172L231 186L245 188C241.798 182.704 234.045 182.432 231.758 175.996C227.542 164.136 247.745 160.438 254.681 166.009C259.192 169.633 254.833 174.414 250.171 173.525C248.046 173.121 246.17 172.287 244 172L257 182L258 182L258 0L133 0L133 1C142.592 6.65683 152.418 11.9251 162 17.6034C169.192 21.8655 178.507 25.5601 182.992 33.0008C191.887 47.76 173.183 62.9128 160 65.8974C150.048 68.1506 140.915 52.0282 131 51.3295C119.983 50.553 112.527 66.3344 102 65.8017C87.7486 65.0805 70.7008 47.0201 78.4174 33.0039C82.8785 24.901 94.2722 20.562 102 16.1505C110.889 11.0763 119.596 5.05226 129 1C118.734 -3.30765 101.158 0 90 0L0 0z"/>
<path style="fill:#ef4c55; stroke:none;" d="M146 60C149.786 62.0997 154.47 66.4672 159 66.3318C173.532 65.8973 189.481 48.3524 183.852 34C180.438 25.2951 168.6 20.9356 161 16.5787C153.046 12.0185 140.289 0.83548 131 0.488434C126.246 0.310837 120.943 4.73375 117 7C105.563 13.5728 83.0287 21.3823 77.5332 34.0008C71.803 47.1581 81.7277 55.6902 92 61.5787C95.9658 63.8521 100.29 67.4368 105 65.3989C119.475 59.1365 111.609 38.7852 120.105 26C122.135 22.9459 126.756 16.0556 130.91 16.0556C134.193 16.0556 137.836 21.7369 139.675 24C148.428 34.7721 148.654 47.1334 146 60z"/>
<path style="fill:#bb2533; stroke:none;" d="M123 3L124 4L123 3M116 7L117 8L116 7M153 12L154 13L153 12M115 59L132 40C135.266 46.914 138.298 56.5114 146 59C150.393 47.2705 147.54 32.6762 139.675 23C137.807 20.7021 134.251 15.2068 130.91 15.2068C127.261 15.2068 123.511 20.4294 121.529 23C113.462 33.4668 111.924 46.5148 115 59M160 16L161 17L160 16M97 18L98 19L97 18M172 23L173 24L172 23M79 30L80 31L79 30M184 35L185 36L184 35z"/>
<path style="fill:#ef4c55; stroke:none;" d="M123 54C129.497 50.7384 132.735 51.7215 139 55L132 40C126.392 42.741 123.903 47.999 123 54z"/>
<path style="fill:#bb2533; stroke:none;" d="M185 40L185 43L186 43L185 40M184 47L185 48L184 47M127 51L128 52L127 51M182 51L183 52L182 51M125 52L126 53L125 52M136 53L137 54L136 53M114 59L115 60L114 59M172 59L173 60L172 59z"/>
<path style="fill:#cfbe3f; stroke:none;" d="M67 60.5579C50.9901 64.7597 55 85.5836 55 98C55 106.8 52.1138 121.69 55.6034 129.79C57.634 134.504 65.7829 137.442 70 139.85C82.6844 147.091 100.439 163.083 116 158.196C128.834 154.166 129.582 133.04 126.682 122.04C124.202 112.633 107.377 110.273 101.742 102.674C96.304 95.3406 102.076 82.5406 99.6821 74.1852C96.9896 64.7866 75.4913 58.3293 67 60.5579z"/>
<path style="fill:#bb2533; stroke:none;" d="M147 60L148 61L147 60z"/>
<path style="fill:#64a22f; stroke:none;" d="M172 110C164.659 110.579 158.56 111.019 152 107C146.848 111.265 137.382 114.29 134.028 120.184C127.673 131.352 132.872 156.581 147 158.786C162.261 161.168 178.496 146.596 191 139.427C195.242 136.995 202.226 134.723 204.972 130.471C207.406 126.704 206 119.311 206 115C206 101.66 210.483 78.3133 202.351 67.0154C193.838 55.1884 180.112 60.6072 170 66.6034C166.476 68.6929 161.465 70.7236 160.318 75.0432C156.001 91.2958 168.086 96.444 172 110z"/>
<path style="fill:#bb2533; stroke:none;" d="M111 61L112 62L111 61M62 62L63 63L62 62M109 62L110 63L109 62M150 62L151 63L150 62M108 63L109 64L108 63M165 63L166 64L165 63M106 64L107 65L106 64M153 64L154 65L153 64M155 65L156 66L155 65M103 66L104 67L103 66M156 66L157 67L156 66z"/>
<path style="fill:#cfbe3f; stroke:none;" d="M160 94L153 109L172 110C170.749 102.985 166.494 97.0306 160 94z"/>
<path style="fill:#bb2533; stroke:none;" d="M100 101L101 102L100 101z"/>
<path style="fill:#64a22f; stroke:none;" d="M159 102L160 103L159 102M101 103L102 104L101 103M157 104L158 105L157 104M104 105L105 106L104 105z"/>
<path style="fill:#bb2533; stroke:none;" d="M106 106L107 107L106 106z"/>
<path style="fill:#64a22f; stroke:none;" d="M154 106L155 107L154 106M107 107L108 108L107 107z"/>
<path style="fill:#bb2533; stroke:none;" d="M109 108L110 109L109 108z"/>
<path style="fill:#ef4c55; stroke:none;" d="M110 109L111 110L110 109M111 110L112 111L111 110z"/>
<path style="fill:#bb2533; stroke:none;" d="M112 110L113 111L112 110z"/>
<path style="fill:#ef4c55; stroke:none;" d="M113 111L114 112L113 111z"/>
<path style="fill:#bb2533; stroke:none;" d="M115 112L116 113L115 112z"/>
<path style="fill:#64a22f; stroke:none;" d="M118 114L119 115L118 114z"/>
<path style="fill:#bb2533; stroke:none;" d="M120 115L121 116L120 115M123 117L124 118L123 117z"/>
<path style="fill:#64a22f; stroke:none;" d="M126 119L127 120L126 119z"/>
<path style="fill:#ef4c55; stroke:none;" d="M59 133L60 134L59 133z"/>
<path style="fill:#cfbe3f; stroke:none;" d="M190 139L191 140L190 139z"/>
<path style="fill:#bb2533; stroke:none;" d="M124 151L125 152L124 151M97 155L98 156L97 155M115 158L116 159L115 158M215 163L215 164L220 164L215 163M242 163L242 164L247 164L242 163M0 164L0 171L1 171L1 165L27 165L27 176L19 176L19 171L18 171L18 177C28.1739 176.992 28 173.253 28 164L0 164M29 164L29 165L50 165L29 164M61 164L61 165L88 165L88 176L80 176L80 171L79 171L79 177C88.1572 176.993 89.6161 173.942 90 165L106 165L106 171L107 171L107 164L61 164M110 164L110 171L111 171L111 165L125 165L125 171L126 171L126 164L110 164M129 166C133.341 164.966 138.291 163.821 141 168C142.265 162.368 131.516 163.121 129 166M145 164L145 165L158 165L145 164M159 164L159 171L160 171L160 165L186 165L186 176L178 176L178 171L177 171L177 177C187.174 176.992 187 173.253 187 164L159 164M188 164L188 165L203 165L188 164M210.667 164.333L211.333 164.667L210.667 164.333z"/>
<path style="fill:#ef4c55; stroke:none;" d="M226 179L226 178L216 174L216 172L229 173C228.881 163.003 212.94 159.887 206.742 167.419C204.005 170.745 204.117 177.978 209.109 178.852C211.329 179.241 213.755 179 216 179L226 179z"/>
<path style="fill:#bb2533; stroke:none;" d="M223 164L223 165L226 165L223 164M237.667 164.333L238.333 164.667L237.667 164.333z"/>
<path style="fill:#ef4c55; stroke:none;" d="M253 179L253 178L243 174L243 172L256 173C255.879 162.878 240.91 160.3 234.318 167.279C231.282 170.493 230.731 177.91 236.109 178.852C238.329 179.241 240.755 179 243 179L253 179z"/>
<path style="fill:#bb2533; stroke:none;" d="M250 164L250 165L253 165L250 164z"/>
<path style="fill:#ef4c55; stroke:none;" d="M1 165L3 179L16 179L16 178L13 178L13 171L19 171L19 176L27 176L27 165L1 165M29 165C29.2977 175.081 32.0387 178.999 42 179L42 171C46.8056 171.784 47.747 174.395 48 179L59 179C58.5958 161.806 41.5393 165 29 165z"/>
<path style="fill:#bb2533; stroke:none;" d="M51.6667 165.333L52.3333 165.667L51.6667 165.333z"/>
<path style="fill:#ef4c55; stroke:none;" d="M61 165L64 179L77 179L77 178L74 178L74 171L80 171L80 176L88 176L88 165L61 165M90 165L92 179L103 179L103 171L106 171L106 165L90 165M111 165C111.277 174.397 114.661 178.993 124 179L125 165L111 165M127 179L143 179L141 165C129.777 165 128.409 168.091 127 179M145 165L146 179C154.624 178.969 157.444 173.384 158 165L145 165M160 165L162 179L175 179L175 178L172 178L172 171L178 171L178 176L186 176L186 165L160 165M188 165L190 179L201 179L203 165L188 165z"/>
<path style="fill:#bb2533; stroke:none;" d="M208 165L209 166L208 165M227 165L228 166L227 165M235 165L236 166L235 165M254 165L255 166L254 165M53 166L54 167L53 166M229 166L229 173L230 173L229 166M234 166L235 167L234 166M256 166L256 173L257 173L256 166M55 167L56 168L55 167M61 167L61 171L62 171L61 167M233 167L234 168L233 167M56 168L57 169L56 168M128 168L128 171L129 171L128 168M205 168L206 169L205 168M232 168L233 169L232 168M142 169L142 173L143 173L142 169M57 170L58 171L57 170M145 170L146 171L145 170M157 170L158 171L157 170M204 170L204 177L205 177L204 170M231 170L231 177L232 177L231 170z"/>
<path style="fill:#030102; stroke:none;" d="M0 171L0 189L2 189L2 171L0 171z"/>
<path style="fill:#bb2533; stroke:none;" d="M2 171C2 175.604 -1.34927 191.348 1.03241 194.4C3.66312 197.772 25.4672 197.603 27.3966 193.682C32.3252 183.666 18.4037 176.705 18 189L14 189L14 182L17 182L17 177L14 177L14 171L13 171C13 174.363 12.2842 177.204 16 178L16 179L3 179L2 171z"/>
<path style="fill:#030102; stroke:none;" d="M42 171L42 189C49.4948 187.749 49.4948 172.251 42 171z"/>
<path style="fill:#bb2533; stroke:none;" d="M46 171L47 172L46 171M58.3333 171.667L58.6667 172.333L58.3333 171.667M63 171L61 196L88 196C88.2708 192.568 90.3338 186.593 87.9722 183.603C83.571 178.032 79.137 184.827 79 189L75 189L75 182L78 182L78 177L75 177L75 171L74 171C74 174.363 73.2842 177.204 77 178L77 179L64 179L63 171M112 171L112 174L113 174L112 171M146 171L146 175L147 175L146 171M161 171C161 175.604 157.651 191.348 160.032 194.4C162.663 197.772 184.467 197.603 186.397 193.682C191.325 183.666 177.404 176.705 177 189L173 189L173 182L176 182L176 177L173 177L173 171L172 171C172 174.363 171.284 177.204 175 178L175 179L162 179L161 171M217 171L217 172L220 172L217 171M244 171L244 172L248 172L244 171M91 172L91 176L92 176L91 172M127 172L127 176L128 176L127 172M216.333 172.667L216.667 173.333L216.333 172.667M243.333 172.667L243.667 173.333L243.333 172.667M47 173C47 178.876 48.8475 186.921 42 189L42 179L31 178L29 196C47.5571 196 60 195.818 60 174L59 174L59 179L48 179L47 173M124 173L124 179L114 178C114.612 182.548 115.317 191.048 118.728 194.397C129.074 204.557 133.497 185.321 134 179L127 177L126 177L126 181L125 181L124 173M155 173L155 176L156 176L155 173M221 173L221 174L229 174L221 173M248 173L248 174L256 174L248 173M143 174L143 179L135 179C135.478 185.003 140.099 204.843 150.146 194.397C153.584 190.821 154.36 181.755 155 177L154 177C150.943 179.303 148.15 179.314 146 176L145 176L145 179L144 179L143 174M217.667 174.333L218.333 174.667L217.667 174.333M244.667 174.333L245.333 174.667L244.667 174.333M113 175L113 178L114 178L113 175M220.667 175.333L221.333 175.667L220.667 175.333M247.667 175.333L248.333 175.667L247.667 175.333M222 176L222 177L225 177L222 176M249 176L249 177L252 177L249 176M205.333 177.667L205.667 178.333L205.333 177.667M225 177L226 178L225 177M232.333 177.667L232.667 178.333L232.333 177.667M252 177L253 178L252 177M134 178L135 179L134 178M206 179L218 188L204 186C204.047 199.201 225.772 200.344 230 189L231 189C231.78 198.785 251.191 198.58 255.991 191.786C258.75 187.881 259.023 179.515 252.956 178.742C250.416 178.419 247.571 178.987 245 178.999L233 179L245 188L231 186C229.242 174.975 214.728 179 206 179M92 179L90 196C102.155 196 114.998 200.227 115 185L103 189L103 179L92 179M190 179L188 196L203 196L201 179L190 179M32 219L32 218L28 214L34 215L34 214C24.1656 208.708 34.5371 201.362 39 209L34 209L34 210L39 216L40 216L39 209C46.0386 209.415 54.9937 207.072 56 216L57 216L62 213L62 212L57 212L57 209C62.5596 209.066 65.3372 210.119 66 216L67 216L67 209L83 209L80 212L80 215L83 216L81 218L81 219C84.7122 218.205 84.7122 214.795 81 214L81 213L84 213L84 208C72.669 203.96 52.6716 208 40 208C35.1211 194.125 17.6038 216.597 32 219M87 204L87 219C92.5151 219 113.755 221.81 115 216L120 219L120 218C115.028 213.342 119.243 206.731 125 211L126 211L127 211L134 209L134 214L135 214C135.968 205.412 155.208 206.873 159 213L160 213C161.991 209.391 164.598 208.477 168 211L169 211C175.884 206.124 179.457 211.83 181 218L166 218L166 219L184 219L184 218C174.568 207.924 192.45 205.894 186 218L186 219C189.162 218.322 189.916 215.68 187 214L187 213C189.596 210.724 188.563 206.962 184.85 206.333C180.033 205.516 163.766 207.147 160 210L159 210L144.09 207.741L94 208L94 216L95 216L95 209L105 209L106 218L88 218L88 205L95 206L87 204M198 219L198 218C192.866 215.003 191.406 206.841 199.011 205.542C203.897 204.708 204.877 208.82 201 211L200 208L199 208L199 215L200 215C202.306 213.091 206.892 209.569 209.995 209.631C215.884 209.749 214.697 215.953 211 218L211 219L233 219L233 218L215 218L215 210L220 209L221 216L222 216L221 209C226.934 209.35 231.471 209.065 232 216L233 216C232.794 207.506 228.314 208 221 208L221 204L215 204L215 209L206 208C202.222 195.086 181.501 215.009 198 219z"/>
<path style="fill:#ef4c55; stroke:none;" d="M30.6667 205.333L31.3333 205.667L30.6667 205.333z"/>
<path style="fill:#cfbe3f; stroke:none;" d="M29 206C29.1427 210.347 29.909 212.264 34 214L34 215L29 214L29 218C36.6134 217.973 42.4081 213.277 33 209L33 208L38 209C36.4548 204.609 33.0307 205.288 29 206z"/>
<path style="fill:#ef4c55; stroke:none;" d="M36 205L37 206L36 205M88 205L88 206L94 206L93 215L94 215L95 206L88 205M197 205L198 206L197 205z"/>
<path style="fill:#cfbe3f; stroke:none;" d="M204 218L204 213L200 216L199 216L198 208L204 210C201.806 197.369 186.011 214.321 198.053 217.682C199.921 218.203 202.084 217.993 204 218z"/>
<path style="fill:#ef4c55; stroke:none;" d="M202 205L203 206L202 205M216 208L217 208L220 206L216 208M38 206L38 209L39 209L38 206z"/>
<path style="fill:#cfbe3f; stroke:none;" d="M88 206L88 218L94 218L94 206L88 206z"/>
<path style="fill:#ef4c55; stroke:none;" d="M204 206L204 210L205 210L204 206z"/>
<path style="fill:#cfbe3f; stroke:none;" d="M217 206L217 208L220 208L220 206L217 206z"/>
<path style="fill:#ef4c55; stroke:none;" d="M28 207L28 211L29 211L28 207z"/>
<path style="fill:#cfbe3f; stroke:none;" d="M77 207C75.7018 212.468 75.353 217.47 82 218C80.7827 213.204 82.6837 208.603 77 207M136 207C134.896 212.659 135.557 217.498 142 218L139 212L142 209L136 207z"/>
<path style="fill:#ef4c55; stroke:none;" d="M139.333 207.667L139.667 208.333L139.333 207.667z"/>
<path style="fill:#cfbe3f; stroke:none;" d="M182 207C180.896 212.659 181.557 217.498 188 218L185 212L188 209L182 207z"/>
<path style="fill:#ef4c55; stroke:none;" d="M185.333 207.667L185.667 208.333L185.333 207.667M194 207L195 208L194 207M33.6667 208.333L34.3333 208.667L33.6667 208.333M76 208L77 209L76 208M198 208L198 215L199 215L198 208M200 208L201 209L200 208M39.3333 209.667L39.6667 210.333L39.3333 209.667z"/>
<path style="fill:#cfbe3f; stroke:none;" d="M40 209L40 218L45 218L44 212L46 212L46 218L50 218L50 212L52 212L51 218L56 218C54.6564 207.666 48.8082 209.345 40 209z"/>
<path style="fill:#ef4c55; stroke:none;" d="M50 209L51 210L50 209M54 209L55 210L54 209M57 209L58 210L57 209z"/>
<path style="fill:#cfbe3f; stroke:none;" d="M57 212L62 212L62 213L57 214C58.4422 218.36 61.9147 217.837 66 218C65.3715 213.166 61.7216 204.723 57 212z"/>
<path style="fill:#ef4c55; stroke:none;" d="M64 209L65 210L64 209z"/>
<path style="fill:#cfbe3f; stroke:none;" d="M67 209L67 218L73 218L71 213L75 209L67 209z"/>
<path style="fill:#ef4c55; stroke:none;" d="M71 209L72 210L71 209M75 209L75 212L76 212L75 209M82.3333 209.667L82.6667 210.333L82.3333 209.667z"/>
<path style="fill:#cfbe3f; stroke:none;" d="M95 209L95 218L100 218L99 212L102 212L101 218L106 218C104.522 210.195 102.822 209.288 95 209z"/>
<path style="fill:#ef4c55; stroke:none;" d="M99.6667 209.333L100.333 209.667L99.6667 209.333M104 209L105 210L104 209z"/>
<path style="fill:#cfbe3f; stroke:none;" d="M106 209C106.905 214.234 108.377 217.563 114 218L116 209L112 209L112 215L111 215L111 209L106 209z"/>
<path style="fill:#ef4c55; stroke:none;" d="M111 209L111 215L112 215L111 209M118 209L117 211L118 209z"/>
<path style="fill:#cfbe3f; stroke:none;" d="M126 216L121 216L126 214C121.176 198.111 112.459 226.192 126 216z"/>
<path style="fill:#ef4c55; stroke:none;" d="M124 209L125 210L124 209M127 209L128 210L127 209z"/>
<path style="fill:#cfbe3f; stroke:none;" d="M131 215L131 216L127 216L127 218C130.056 217.9 136.012 216.638 132 213L132 212L134 210C128.867 208.633 124.899 212.543 131 215z"/>
<path style="fill:#ef4c55; stroke:none;" d="M133 209L134 210L133 209M142 209L141 212L142 209z"/>
<path style="fill:#cfbe3f; stroke:none;" d="M143 209L143 218L147 218L147 212L149 212L148 218L153 218L153 212L155 212L154 218L159 218C157.656 207.666 151.808 209.345 143 209z"/>
<path style="fill:#ef4c55; stroke:none;" d="M153 209L154 210L153 209M157 209L158 210L157 209M161 209L160 211L161 209z"/>
<path style="fill:#cfbe3f; stroke:none;" d="M168 215L164 216L169 214C167.959 208.224 159.443 207.366 160.139 214C160.618 218.568 167.034 219.51 168 215z"/>
<path style="fill:#ef4c55; stroke:none;" d="M167 209L168 210L167 209M169 209L169 212L170 212L169 209z"/>
<path style="fill:#cfbe3f; stroke:none;" d="M170 209L170 218L174 218L174 212L176 212L175 218L180 218L179 209L170 209z"/>
<path style="fill:#ef4c55; stroke:none;" d="M193.333 209.667L193.667 210.333L193.333 209.667M207 209L208 210L207 209z"/>
<path style="fill:#cfbe3f; stroke:none;" d="M208.228 209.762C202.956 211.978 206.718 219.395 211.856 217.377C217.303 215.238 213.508 207.542 208.228 209.762M216 209L216 218L221 218L220 209L216 209z"/>
<path style="fill:#ef4c55; stroke:none;" d="M221 209L221 212L222 212L221 209z"/>
<path style="fill:#cfbe3f; stroke:none;" d="M222 209L222 218L226 218L226 212L228 212L227 218L232 218L231 209L222 209z"/>
<path style="fill:#ef4c55; stroke:none;" d="M36 210L37 211L36 210M179 210L179 215L180 215L179 210M201 210L201 211L204 211L201 210M215 210L216 211L215 210M231 210L231 215L232 215L231 210M55 211L55 215L56 215L55 211M65 211L65 215L66 215L65 211z"/>
<path style="fill:#bb2533; stroke:none;" d="M121 211L122 212L121 211z"/>
<path style="fill:#ef4c55; stroke:none;" d="M122 211L123 212L122 211M126.333 211.667L126.667 212.333L126.333 211.667z"/>
<path style="fill:#bb2533; stroke:none;" d="M130 211L131 212L130 211z"/>
<path style="fill:#ef4c55; stroke:none;" d="M131 211L132 212L131 211M158 211L160 215L158 211z"/>
<path style="fill:#bb2533; stroke:none;" d="M164 211L165 212L164 211z"/>
<path style="fill:#ef4c55; stroke:none;" d="M165 211L166 212L165 211M187 211L188 212L187 211M205 211L206 212L205 211M40 212L40 215L41 215L40 212z"/>
<path style="fill:#bb2533; stroke:none;" d="M44 212L45 216L46 216L46 212L44 212M50 212L50 216L51 216L52 212L50 212M72 212L73 218L60 218L60 219L74 219L73 213L79 219L79 218L76 212L72 212z"/>
<path style="fill:#ef4c55; stroke:none;" d="M95 212L95 216L96 216L95 212M99 212L99 215L100 215L99 212z"/>
<path style="fill:#bb2533; stroke:none;" d="M100 212L100 216L101 216L100 212z"/>
<path style="fill:#ef4c55; stroke:none;" d="M101 212L101 215L102 215L101 212z"/>
<path style="fill:#bb2533; stroke:none;" d="M111 212L112 213L111 212z"/>
<path style="fill:#ef4c55; stroke:none;" d="M121 212L122 213L121 212M132 212L133 213L132 212M135 212L134 216L135 212M139 212L142 218L143 218L139 212z"/>
<path style="fill:#bb2533; stroke:none;" d="M140 212L143 216L143 212L140 212M147 212L147 215L149 215L149 212L147 212M153 212L153 216L154 216L153 212z"/>
<path style="fill:#ef4c55; stroke:none;" d="M154 212L154 216L155 216L154 212M164 212L165 213L164 212z"/>
<path style="fill:#bb2533; stroke:none;" d="M169 212L164 214L164 215L170 216L169 212M174 212L174 215L176 215L176 212L174 212z"/>
<path style="fill:#ef4c55; stroke:none;" d="M181 212L181 216L182 216L181 212M185 212L185 215L186 215L185 212M193 212L193 215L194 215L193 212z"/>
<path style="fill:#bb2533; stroke:none;" d="M209 212L209 215L211 215L211 212L209 212z"/>
<path style="fill:#ef4c55; stroke:none;" d="M216 212L216 215L217 215L216 212z"/>
<path style="fill:#bb2533; stroke:none;" d="M226 212L226 216L227 216L228 212L226 212z"/>
<path style="fill:#ef4c55; stroke:none;" d="M32 213L33 214L32 213M58 213L59 214L58 213M67 213L67 216L68 216L67 213M71.3333 213.667L71.6667 214.333L71.3333 213.667z"/>
<path style="fill:#030102; stroke:none;" d="M73 213L76 219L73 213z"/>
<path style="fill:#ef4c55; stroke:none;" d="M116.333 213.667L116.667 214.333L116.333 213.667z"/>
<path style="fill:#bb2533; stroke:none;" d="M121 214L121 215L128 215L121 214z"/>
<path style="fill:#030102; stroke:none;" d="M141 213L142 214L141 213z"/>
<path style="fill:#ef4c55; stroke:none;" d="M200.333 213.667L200.667 214.333L200.333 213.667M204 213L204 217L205 217L204 213M28 214L28 217L29 217L28 214M61 214L60 216L62 216L61 214M107 214L108 215L107 214M114.333 214.667L114.667 215.333L114.333 214.667M128 214L127 216L129 216L128 214M44 215L45 216L44 215M51 215L52 216L51 215M72 215L73 216L72 215M81 215L82 216L81 215M88 215L89 216L88 215M105 215L106 216L105 215M121 215L121 216L124 216L121 215M125 215L126 216L125 215z"/>
<path style="fill:#bb2533; stroke:none;" d="M129.667 215.333L130.333 215.667L129.667 215.333z"/>
<path style="fill:#ef4c55; stroke:none;" d="M147 215L147 218L148 218L149 215L147 215z"/>
<path style="fill:#bb2533; stroke:none;" d="M159 215C155.678 220.124 145.531 218 140 218L140 219L163 219L163 218L159 215z"/>
<path style="fill:#ef4c55; stroke:none;" d="M164 215L164 216L167 216L164 215M168 215L170 218L168 215M174 215L174 218L175 218L176 215L174 215M186.667 215.333L187.333 215.667L186.667 215.333M199 215L200 216L199 215M210 215L211 216L210 215M220 215L221 216L220 215M227 215L228 216L227 215M37 217L37 218L40 218L40 217L37 217M45.3333 216.667L45.6667 217.333L45.3333 216.667M50.3333 216.667L50.6667 217.333L50.3333 216.667M56 216L58 218L56 216M66.3333 216.667L66.6667 217.333L66.3333 216.667M76 216L77 217L76 216M82.3333 216.667L82.6667 217.333L82.3333 216.667M94.3333 216.667L94.6667 217.333L94.3333 216.667M100.333 216.667L100.667 217.333L100.333 216.667z"/>
<path style="fill:#030102; stroke:none;" d="M115 216L118 219L115 216z"/>
<path style="fill:#ef4c55; stroke:none;" d="M117 216L118 217L117 216M126 216L125 218L127 218L126 216z"/>
<path style="fill:#bb2533; stroke:none;" d="M134 216L132 218L132 219L138 219L138 218L136 216L134 216z"/>
<path style="fill:#ef4c55; stroke:none;" d="M153.333 216.667L153.667 217.333L153.333 216.667M160 216L161 217L160 216M180.333 216.667L180.667 217.333L180.333 216.667M194 216L195 217L194 216z"/>
<path style="fill:#bb2533; stroke:none;" d="M205 216L201 218L201 219L209 219L209 218L205 216z"/>
<path style="fill:#ef4c55; stroke:none;" d="M214 216L215 217L214 216M221.333 216.667L221.667 217.333L221.333 216.667M226.333 216.667L226.667 217.333L226.333 216.667M232.333 216.667L232.667 217.333L232.333 216.667z"/>
<path style="fill:#bb2533; stroke:none;" d="M35 218L35 219L59 219L35 218z"/>
<path style="fill:#ef4c55; stroke:none;" d="M61 217L62 218L61 217M108 217L109 218L108 217M118 217L119 218L118 217M133 217L134 218L133 217M136 217L137 218L136 217M161 217L162 218L161 217M182 217L183 218L182 217M213 217L214 218L213 217M215 217L216 218L215 217M32 218L32 219L35 219L32 218M59 218L60 219L59 218M79.6667 218.333L80.3333 218.667L79.6667 218.333M120 218L120 219L123 219L120 218z"/>
<path style="fill:#bb2533; stroke:none;" d="M123 218L123 219L129 219L123 218z"/>
<path style="fill:#ef4c55; stroke:none;" d="M129 218L129 219L132 219L129 218z"/>
<path style="fill:#030102; stroke:none;" d="M134.667 218.333L135.333 218.667L134.667 218.333z"/>
<path style="fill:#ef4c55; stroke:none;" d="M138.667 218.333L139.333 218.667L138.667 218.333z"/>
<path style="fill:#030102; stroke:none;" d="M160 218L161 219L160 218z"/>
<path style="fill:#ef4c55; stroke:none;" d="M163 218L163 219L166 219L163 218z"/>
<path style="fill:#030102; stroke:none;" d="M181 218L182 219L181 218z"/>
<path style="fill:#ef4c55; stroke:none;" d="M184.667 218.333L185.333 218.667L184.667 218.333M198 218L198 219L201 219L198 218z"/>
<path style="fill:#030102; stroke:none;" d="M205 218L206 219L205 218z"/>
<path style="fill:#ef4c55; stroke:none;" d="M209.667 218.333L210.333 218.667L209.667 218.333z"/>
<path style="fill:#030102; stroke:none;" d="M214 218L215 219L214 218z"/>
</svg>
